<mxfile host="app.diagrams.net" modified="2024-07-11T15:52:17.874Z" agent="Mozilla/5.0 (Macintosh; Intel Mac OS X 10_15_7) AppleWebKit/537.36 (KHTML, like Gecko) Chrome/126.0.0.0 Safari/537.36" etag="9T79OfOgNir7-2HceYfN" version="24.6.4" type="device">
  <diagram id="C5RBs43oDa-KdzZeNtuy" name="Page-1">
    <mxGraphModel dx="2576" dy="2403" grid="1" gridSize="10" guides="1" tooltips="1" connect="1" arrows="1" fold="1" page="1" pageScale="1" pageWidth="827" pageHeight="1169" math="0" shadow="0">
      <root>
        <mxCell id="WIyWlLk6GJQsqaUBKTNV-0" />
        <mxCell id="WIyWlLk6GJQsqaUBKTNV-1" parent="WIyWlLk6GJQsqaUBKTNV-0" />
        <mxCell id="IfCaf5IH-N3aq7UcHZK1-40" value="" style="rounded=0;whiteSpace=wrap;html=1;" vertex="1" parent="WIyWlLk6GJQsqaUBKTNV-1">
          <mxGeometry x="-390" y="-50" width="1630" height="860" as="geometry" />
        </mxCell>
        <mxCell id="IfCaf5IH-N3aq7UcHZK1-32" value="" style="rounded=1;whiteSpace=wrap;html=1;fillColor=none;" vertex="1" parent="WIyWlLk6GJQsqaUBKTNV-1">
          <mxGeometry x="-140" y="70" width="1170" height="670" as="geometry" />
        </mxCell>
        <mxCell id="IfCaf5IH-N3aq7UcHZK1-19" style="rounded=0;orthogonalLoop=1;jettySize=auto;html=1;exitX=0;exitY=1;exitDx=0;exitDy=0;entryX=1;entryY=0;entryDx=0;entryDy=0;" edge="1" parent="WIyWlLk6GJQsqaUBKTNV-1" source="IfCaf5IH-N3aq7UcHZK1-1" target="IfCaf5IH-N3aq7UcHZK1-18">
          <mxGeometry relative="1" as="geometry" />
        </mxCell>
        <mxCell id="IfCaf5IH-N3aq7UcHZK1-20" value="&amp;lt;&amp;lt; Include &amp;gt;&amp;gt;" style="edgeLabel;html=1;align=center;verticalAlign=middle;resizable=0;points=[];" vertex="1" connectable="0" parent="IfCaf5IH-N3aq7UcHZK1-19">
          <mxGeometry x="-0.0746" y="1" relative="1" as="geometry">
            <mxPoint as="offset" />
          </mxGeometry>
        </mxCell>
        <mxCell id="IfCaf5IH-N3aq7UcHZK1-31" style="rounded=0;orthogonalLoop=1;jettySize=auto;html=1;entryX=0;entryY=0;entryDx=0;entryDy=0;" edge="1" parent="WIyWlLk6GJQsqaUBKTNV-1" source="IfCaf5IH-N3aq7UcHZK1-30" target="IfCaf5IH-N3aq7UcHZK1-1">
          <mxGeometry relative="1" as="geometry" />
        </mxCell>
        <mxCell id="IfCaf5IH-N3aq7UcHZK1-1" value="Buy Ticket" style="ellipse;whiteSpace=wrap;html=1;fontSize=18;fontStyle=1" vertex="1" parent="WIyWlLk6GJQsqaUBKTNV-1">
          <mxGeometry x="130" y="100" width="170" height="100" as="geometry" />
        </mxCell>
        <mxCell id="IfCaf5IH-N3aq7UcHZK1-8" style="rounded=0;orthogonalLoop=1;jettySize=auto;html=1;exitX=1;exitY=1;exitDx=0;exitDy=0;entryX=0;entryY=0;entryDx=0;entryDy=0;" edge="1" parent="WIyWlLk6GJQsqaUBKTNV-1" source="IfCaf5IH-N3aq7UcHZK1-2" target="IfCaf5IH-N3aq7UcHZK1-3">
          <mxGeometry relative="1" as="geometry" />
        </mxCell>
        <mxCell id="IfCaf5IH-N3aq7UcHZK1-12" value="&amp;lt;&amp;lt; Extend &amp;gt;&amp;gt;" style="edgeLabel;html=1;align=center;verticalAlign=middle;resizable=0;points=[];" vertex="1" connectable="0" parent="IfCaf5IH-N3aq7UcHZK1-8">
          <mxGeometry x="-0.1369" y="-1" relative="1" as="geometry">
            <mxPoint as="offset" />
          </mxGeometry>
        </mxCell>
        <mxCell id="IfCaf5IH-N3aq7UcHZK1-2" value="Select Destination" style="ellipse;whiteSpace=wrap;html=1;fontSize=18;fontStyle=1" vertex="1" parent="WIyWlLk6GJQsqaUBKTNV-1">
          <mxGeometry x="300" y="200" width="170" height="100" as="geometry" />
        </mxCell>
        <mxCell id="IfCaf5IH-N3aq7UcHZK1-9" style="rounded=0;orthogonalLoop=1;jettySize=auto;html=1;exitX=1;exitY=1;exitDx=0;exitDy=0;entryX=0;entryY=0;entryDx=0;entryDy=0;" edge="1" parent="WIyWlLk6GJQsqaUBKTNV-1" source="IfCaf5IH-N3aq7UcHZK1-3" target="IfCaf5IH-N3aq7UcHZK1-4">
          <mxGeometry relative="1" as="geometry" />
        </mxCell>
        <mxCell id="IfCaf5IH-N3aq7UcHZK1-13" value="&amp;lt;&amp;lt; Extend &amp;gt;&amp;gt;" style="edgeLabel;html=1;align=center;verticalAlign=middle;resizable=0;points=[];" vertex="1" connectable="0" parent="IfCaf5IH-N3aq7UcHZK1-9">
          <mxGeometry x="-0.1545" relative="1" as="geometry">
            <mxPoint as="offset" />
          </mxGeometry>
        </mxCell>
        <mxCell id="IfCaf5IH-N3aq7UcHZK1-3" value="Select Ticket Type" style="ellipse;whiteSpace=wrap;html=1;fontSize=18;fontStyle=1" vertex="1" parent="WIyWlLk6GJQsqaUBKTNV-1">
          <mxGeometry x="470" y="300" width="170" height="100" as="geometry" />
        </mxCell>
        <mxCell id="IfCaf5IH-N3aq7UcHZK1-10" style="rounded=0;orthogonalLoop=1;jettySize=auto;html=1;exitX=0.5;exitY=1;exitDx=0;exitDy=0;entryX=0.5;entryY=0;entryDx=0;entryDy=0;" edge="1" parent="WIyWlLk6GJQsqaUBKTNV-1" source="IfCaf5IH-N3aq7UcHZK1-4" target="IfCaf5IH-N3aq7UcHZK1-6">
          <mxGeometry relative="1" as="geometry" />
        </mxCell>
        <mxCell id="IfCaf5IH-N3aq7UcHZK1-14" value="&amp;lt;&amp;lt; Include &amp;gt;&amp;gt;" style="edgeLabel;html=1;align=center;verticalAlign=middle;resizable=0;points=[];" vertex="1" connectable="0" parent="IfCaf5IH-N3aq7UcHZK1-10">
          <mxGeometry x="-0.12" y="-1" relative="1" as="geometry">
            <mxPoint as="offset" />
          </mxGeometry>
        </mxCell>
        <mxCell id="IfCaf5IH-N3aq7UcHZK1-16" style="rounded=0;orthogonalLoop=1;jettySize=auto;html=1;exitX=1;exitY=1;exitDx=0;exitDy=0;entryX=0;entryY=0;entryDx=0;entryDy=0;" edge="1" parent="WIyWlLk6GJQsqaUBKTNV-1" source="IfCaf5IH-N3aq7UcHZK1-4" target="IfCaf5IH-N3aq7UcHZK1-15">
          <mxGeometry relative="1" as="geometry" />
        </mxCell>
        <mxCell id="IfCaf5IH-N3aq7UcHZK1-17" value="&amp;lt;&amp;lt; Extend &amp;gt;&amp;gt;" style="edgeLabel;html=1;align=center;verticalAlign=middle;resizable=0;points=[];" vertex="1" connectable="0" parent="IfCaf5IH-N3aq7UcHZK1-16">
          <mxGeometry x="0.0474" relative="1" as="geometry">
            <mxPoint as="offset" />
          </mxGeometry>
        </mxCell>
        <mxCell id="IfCaf5IH-N3aq7UcHZK1-4" value="Enter Payment" style="ellipse;whiteSpace=wrap;html=1;fontSize=18;fontStyle=1" vertex="1" parent="WIyWlLk6GJQsqaUBKTNV-1">
          <mxGeometry x="640" y="400" width="170" height="100" as="geometry" />
        </mxCell>
        <mxCell id="IfCaf5IH-N3aq7UcHZK1-6" value="Select &lt;br&gt;Payment Method" style="ellipse;whiteSpace=wrap;html=1;fontSize=18;fontStyle=1" vertex="1" parent="WIyWlLk6GJQsqaUBKTNV-1">
          <mxGeometry x="640" y="600" width="170" height="100" as="geometry" />
        </mxCell>
        <mxCell id="IfCaf5IH-N3aq7UcHZK1-7" style="rounded=0;orthogonalLoop=1;jettySize=auto;html=1;exitX=1;exitY=1;exitDx=0;exitDy=0;entryX=0;entryY=0;entryDx=0;entryDy=0;" edge="1" parent="WIyWlLk6GJQsqaUBKTNV-1" source="IfCaf5IH-N3aq7UcHZK1-1" target="IfCaf5IH-N3aq7UcHZK1-2">
          <mxGeometry relative="1" as="geometry" />
        </mxCell>
        <mxCell id="IfCaf5IH-N3aq7UcHZK1-11" value="&amp;lt;&amp;lt; Include &amp;gt;&amp;gt;" style="edgeLabel;html=1;align=center;verticalAlign=middle;resizable=0;points=[];" vertex="1" connectable="0" parent="IfCaf5IH-N3aq7UcHZK1-7">
          <mxGeometry x="0.0298" y="1" relative="1" as="geometry">
            <mxPoint as="offset" />
          </mxGeometry>
        </mxCell>
        <mxCell id="IfCaf5IH-N3aq7UcHZK1-15" value="Print Ticket" style="ellipse;whiteSpace=wrap;html=1;fontSize=18;fontStyle=1" vertex="1" parent="WIyWlLk6GJQsqaUBKTNV-1">
          <mxGeometry x="810" y="500" width="170" height="100" as="geometry" />
        </mxCell>
        <mxCell id="IfCaf5IH-N3aq7UcHZK1-18" value="Cancel Transaction" style="ellipse;whiteSpace=wrap;html=1;fontSize=18;fontStyle=1" vertex="1" parent="WIyWlLk6GJQsqaUBKTNV-1">
          <mxGeometry x="-40" y="200" width="170" height="100" as="geometry" />
        </mxCell>
        <mxCell id="IfCaf5IH-N3aq7UcHZK1-21" style="rounded=0;orthogonalLoop=1;jettySize=auto;html=1;exitX=0;exitY=1;exitDx=0;exitDy=0;entryX=1;entryY=0;entryDx=0;entryDy=0;" edge="1" parent="WIyWlLk6GJQsqaUBKTNV-1" target="IfCaf5IH-N3aq7UcHZK1-23" source="IfCaf5IH-N3aq7UcHZK1-2">
          <mxGeometry relative="1" as="geometry">
            <mxPoint x="324.8959235991433" y="277.85533905932743" as="sourcePoint" />
          </mxGeometry>
        </mxCell>
        <mxCell id="IfCaf5IH-N3aq7UcHZK1-22" value="&amp;lt;&amp;lt; Extend &amp;gt;&amp;gt;" style="edgeLabel;html=1;align=center;verticalAlign=middle;resizable=0;points=[];" vertex="1" connectable="0" parent="IfCaf5IH-N3aq7UcHZK1-21">
          <mxGeometry x="-0.0746" y="1" relative="1" as="geometry">
            <mxPoint as="offset" />
          </mxGeometry>
        </mxCell>
        <mxCell id="IfCaf5IH-N3aq7UcHZK1-23" value="Cancel Transaction" style="ellipse;whiteSpace=wrap;html=1;fontSize=18;fontStyle=1" vertex="1" parent="WIyWlLk6GJQsqaUBKTNV-1">
          <mxGeometry x="130" y="300" width="170" height="100" as="geometry" />
        </mxCell>
        <mxCell id="IfCaf5IH-N3aq7UcHZK1-24" style="rounded=0;orthogonalLoop=1;jettySize=auto;html=1;exitX=0;exitY=1;exitDx=0;exitDy=0;entryX=1;entryY=0;entryDx=0;entryDy=0;" edge="1" parent="WIyWlLk6GJQsqaUBKTNV-1" target="IfCaf5IH-N3aq7UcHZK1-26" source="IfCaf5IH-N3aq7UcHZK1-3">
          <mxGeometry relative="1" as="geometry">
            <mxPoint x="504.8959235991433" y="386.2453390593274" as="sourcePoint" />
          </mxGeometry>
        </mxCell>
        <mxCell id="IfCaf5IH-N3aq7UcHZK1-25" value="&amp;lt;&amp;lt; Extend &amp;gt;&amp;gt;" style="edgeLabel;html=1;align=center;verticalAlign=middle;resizable=0;points=[];" vertex="1" connectable="0" parent="IfCaf5IH-N3aq7UcHZK1-24">
          <mxGeometry x="-0.0746" y="1" relative="1" as="geometry">
            <mxPoint as="offset" />
          </mxGeometry>
        </mxCell>
        <mxCell id="IfCaf5IH-N3aq7UcHZK1-26" value="Cancel Transaction" style="ellipse;whiteSpace=wrap;html=1;fontSize=18;fontStyle=1" vertex="1" parent="WIyWlLk6GJQsqaUBKTNV-1">
          <mxGeometry x="300" y="400" width="170" height="100" as="geometry" />
        </mxCell>
        <mxCell id="IfCaf5IH-N3aq7UcHZK1-27" style="rounded=0;orthogonalLoop=1;jettySize=auto;html=1;exitX=0;exitY=1;exitDx=0;exitDy=0;entryX=1;entryY=0;entryDx=0;entryDy=0;" edge="1" parent="WIyWlLk6GJQsqaUBKTNV-1" target="IfCaf5IH-N3aq7UcHZK1-29" source="IfCaf5IH-N3aq7UcHZK1-4">
          <mxGeometry relative="1" as="geometry">
            <mxPoint x="720.8959235991433" y="436.4353390593274" as="sourcePoint" />
          </mxGeometry>
        </mxCell>
        <mxCell id="IfCaf5IH-N3aq7UcHZK1-28" value="&amp;lt;&amp;lt; Extend &amp;gt;&amp;gt;" style="edgeLabel;html=1;align=center;verticalAlign=middle;resizable=0;points=[];" vertex="1" connectable="0" parent="IfCaf5IH-N3aq7UcHZK1-27">
          <mxGeometry x="-0.0746" y="1" relative="1" as="geometry">
            <mxPoint as="offset" />
          </mxGeometry>
        </mxCell>
        <mxCell id="IfCaf5IH-N3aq7UcHZK1-29" value="Cancel Transaction" style="ellipse;whiteSpace=wrap;html=1;fontSize=18;fontStyle=1" vertex="1" parent="WIyWlLk6GJQsqaUBKTNV-1">
          <mxGeometry x="470" y="499.99999999999994" width="170" height="100" as="geometry" />
        </mxCell>
        <mxCell id="IfCaf5IH-N3aq7UcHZK1-30" value="Customer&lt;div&gt;&lt;br&gt;&lt;/div&gt;" style="shape=umlActor;verticalLabelPosition=bottom;verticalAlign=top;html=1;outlineConnect=0;" vertex="1" parent="WIyWlLk6GJQsqaUBKTNV-1">
          <mxGeometry x="-330" y="20" width="90" height="160" as="geometry" />
        </mxCell>
        <mxCell id="IfCaf5IH-N3aq7UcHZK1-34" style="rounded=0;orthogonalLoop=1;jettySize=auto;html=1;entryX=0;entryY=0;entryDx=0;entryDy=0;" edge="1" parent="WIyWlLk6GJQsqaUBKTNV-1" source="IfCaf5IH-N3aq7UcHZK1-30" target="IfCaf5IH-N3aq7UcHZK1-33">
          <mxGeometry relative="1" as="geometry" />
        </mxCell>
        <mxCell id="IfCaf5IH-N3aq7UcHZK1-33" value="Call Staff" style="ellipse;whiteSpace=wrap;html=1;fontSize=18;fontStyle=1" vertex="1" parent="WIyWlLk6GJQsqaUBKTNV-1">
          <mxGeometry x="-10" y="460" width="170" height="100" as="geometry" />
        </mxCell>
        <mxCell id="IfCaf5IH-N3aq7UcHZK1-38" style="rounded=0;orthogonalLoop=1;jettySize=auto;html=1;entryX=1;entryY=0;entryDx=0;entryDy=0;" edge="1" parent="WIyWlLk6GJQsqaUBKTNV-1" source="IfCaf5IH-N3aq7UcHZK1-37" target="IfCaf5IH-N3aq7UcHZK1-35">
          <mxGeometry relative="1" as="geometry" />
        </mxCell>
        <mxCell id="IfCaf5IH-N3aq7UcHZK1-35" value="Maintainance" style="ellipse;whiteSpace=wrap;html=1;fontSize=18;fontStyle=1" vertex="1" parent="WIyWlLk6GJQsqaUBKTNV-1">
          <mxGeometry x="670" y="180" width="170" height="100" as="geometry" />
        </mxCell>
        <mxCell id="IfCaf5IH-N3aq7UcHZK1-37" value="&lt;div&gt;Staff&lt;/div&gt;" style="shape=umlActor;verticalLabelPosition=bottom;verticalAlign=top;html=1;outlineConnect=0;" vertex="1" parent="WIyWlLk6GJQsqaUBKTNV-1">
          <mxGeometry x="1100" y="10" width="90" height="160" as="geometry" />
        </mxCell>
        <mxCell id="IfCaf5IH-N3aq7UcHZK1-39" value="Ticket vending machine" style="text;html=1;align=center;verticalAlign=middle;resizable=0;points=[];autosize=1;strokeColor=none;fillColor=none;fontSize=26;" vertex="1" parent="WIyWlLk6GJQsqaUBKTNV-1">
          <mxGeometry x="-50" y="30" width="300" height="40" as="geometry" />
        </mxCell>
      </root>
    </mxGraphModel>
  </diagram>
</mxfile>
